<?xml version="1.0" standalone="no"?>
<!DOCTYPE svg PUBLIC "-//W3C//DTD SVG 20010904//EN"
 "http://www.w3.org/TR/2001/REC-SVG-20010904/DTD/svg10.dtd">
<svg version="1.0" xmlns="http://www.w3.org/2000/svg"
 width="132.000000pt" height="132.000000pt" viewBox="0 0 132.000000 132.000000"
 preserveAspectRatio="xMidYMid meet">
<metadata>
Created by potrace 1.14, written by Peter Selinger 2001-2017
</metadata>
<g transform="translate(0.000000,132.000000) scale(0.100000,-0.100000)"
fill="#000000" stroke="none">
<path d="M350 1067 c-26 -13 -246 -326 -256 -364 -13 -49 3 -68 126 -149 66
-43 120 -84 120 -91 0 -27 -24 -23 -75 11 -58 38 -75 44 -75 24 0 -14 300
-218 319 -218 25 0 8 22 -44 56 -53 35 -66 56 -45 69 5 3 56 -25 112 -63 57
-38 114 -74 126 -81 46 -24 70 -1 195 184 119 177 133 210 105 247 -15 18
-563 388 -575 388 -4 0 -19 -6 -33 -13z m316 -207 c148 -99 272 -189 275 -198
4 -9 2 -25 -3 -35 -8 -15 -47 9 -309 185 -299 202 -300 203 -278 221 12 10 28
16 34 13 6 -2 133 -86 281 -186z m-306 80 c0 -18 -65 -110 -77 -110 -20 0 -16
11 22 68 33 49 55 65 55 42z m-100 -152 c-1 -18 -25 -48 -39 -48 -16 0 -14 21
6 42 19 21 33 23 33 6z m169 -278 c159 -107 289 -199 287 -205 -1 -5 -13 -11
-27 -13 -17 -2 -97 47 -294 180 -237 161 -270 186 -273 212 -2 15 1 27 6 25 6
-2 141 -92 301 -199z m-41 -87 c-4 -22 -22 -20 -26 1 -2 10 3 16 13 16 10 0
15 -7 13 -17z"/>
</g>
</svg>
